<?xml version="1.0" standalone="no"?>
<!DOCTYPE svg PUBLIC "-//W3C//DTD SVG 20010904//EN"
 "http://www.w3.org/TR/2001/REC-SVG-20010904/DTD/svg10.dtd">
<svg version="1.0" xmlns="http://www.w3.org/2000/svg"
 width="500.000000pt" height="500.000000pt" viewBox="0 0 500.000000 500.000000"
 preserveAspectRatio="xMidYMid meet">
<metadata>
Created by potrace 1.14, written by Peter Selinger 2001-2017
</metadata>
<g transform="translate(0.000000,500.000000) scale(0.100000,-0.100000)"
fill="#000000" stroke="none">
<path d="M1885 4445 c-37 -36 -71 -65 -76 -65 -4 0 -14 -8 -21 -18 -7 -10 -40
-40 -73 -66 -67 -55 -156 -131 -224 -193 -37 -33 -50 -39 -64 -31 -38 20 -140
-28 -168 -79 -25 -46 -11 -133 29 -172 11 -12 13 -31 8 -91 -8 -88 -1 -111 51
-154 29 -25 38 -28 54 -18 18 11 19 9 19 -28 0 -33 4 -42 24 -52 31 -14 96 1
182 43 34 16 68 29 76 29 17 0 165 37 177 44 10 6 78 -66 115 -121 l28 -42
-31 -55 c-17 -30 -30 -60 -29 -67 2 -7 -26 -34 -61 -60 -67 -52 -71 -55 -196
-193 -44 -49 -85 -93 -90 -100 -6 -6 -24 -29 -40 -51 -17 -22 -62 -77 -102
-121 -84 -97 -98 -121 -107 -194 -4 -30 -11 -71 -16 -90 -5 -19 -14 -64 -21
-100 -16 -85 -61 -215 -101 -287 -17 -32 -39 -71 -48 -88 -12 -21 -29 -34 -61
-43 -24 -8 -78 -25 -119 -38 -41 -14 -82 -26 -90 -28 -18 -5 -176 -51 -240
-71 -25 -7 -112 -34 -195 -58 -82 -25 -161 -49 -175 -55 -14 -5 -87 -29 -162
-53 l-137 -44 -1 -93 c0 -91 0 -92 23 -87 12 2 74 12 137 21 63 8 126 18 140
20 14 3 41 7 60 10 19 3 93 17 165 30 72 14 148 27 170 30 22 3 58 10 80 16
22 5 47 11 55 13 33 7 237 56 275 66 22 6 50 13 63 15 12 3 44 12 70 21 26 8
61 17 77 20 17 2 41 8 55 13 49 18 326 92 362 97 32 4 37 2 40 -18 4 -29 85
-81 127 -83 16 -1 27 -3 25 -5 -6 -6 54 -31 72 -31 8 0 14 4 14 9 0 5 -8 7
-17 5 -20 -5 -62 20 -51 31 3 4 17 1 30 -6 12 -7 28 -12 33 -10 6 2 24 5 40 6
17 2 44 7 61 10 26 6 34 3 53 -20 21 -28 29 -75 12 -75 -5 0 -12 -7 -15 -16
-8 -21 20 -54 46 -54 10 0 18 -6 18 -14 0 -9 8 -12 25 -8 17 3 27 -1 31 -12 4
-12 10 -13 24 -6 27 15 37 12 43 -10 7 -25 23 -25 44 0 10 11 33 23 53 26 44
8 57 18 81 66 11 21 24 38 30 38 6 0 7 -5 4 -10 -3 -6 0 -13 8 -16 8 -3 12
-14 10 -27 -3 -17 4 -26 29 -39 32 -17 35 -17 109 6 64 20 79 21 99 11 26 -14
79 -10 126 10 26 11 32 10 41 -4 8 -13 13 -13 25 -4 21 18 27 7 21 -33 l-6
-34 44 -1 c80 -2 114 2 137 17 20 14 25 13 49 -5 14 -12 29 -18 34 -15 5 3 44
-7 87 -22 134 -46 295 -28 365 42 27 26 104 60 153 68 6 1 19 9 28 19 15 15
46 24 46 14 0 -2 -11 -17 -25 -33 -43 -50 -23 -154 24 -125 7 5 21 6 31 4 12
-3 23 3 31 19 18 34 24 36 88 24 58 -11 95 -31 86 -47 -12 -18 24 -78 50 -85
47 -12 111 2 148 31 32 26 34 31 25 57 -6 16 -17 32 -24 35 -22 8 -16 40 9 48
12 4 26 7 30 6 18 -3 47 21 45 37 -2 14 4 16 33 14 20 -1 48 2 63 8 21 8 26
15 22 35 -3 17 0 28 10 32 13 5 13 7 2 15 -9 6 -6 7 9 3 12 -3 24 -1 28 5 4 6
21 8 43 4 49 -9 55 -13 41 -30 -7 -9 -8 -14 -1 -14 6 0 18 10 28 23 16 21 16
21 10 -20 -3 -24 -5 -43 -3 -43 2 0 17 11 33 25 26 23 29 23 34 7 5 -16 10
-17 39 -13 23 3 61 82 76 161 10 47 26 97 36 112 16 23 19 45 19 167 0 101 -3
142 -13 148 -29 19 -128 155 -169 233 -25 47 -59 109 -76 138 -18 28 -41 73
-53 100 -28 61 -139 229 -205 312 -50 61 -127 134 -163 154 -9 5 -20 14 -26
20 -5 7 -46 28 -90 47 l-80 34 -160 0 c-124 -1 -171 -5 -207 -17 -71 -26 -327
-81 -344 -74 -8 3 -20 20 -26 37 -7 21 -30 43 -71 70 -33 21 -66 39 -74 39 -7
0 -21 4 -31 10 -49 27 -271 82 -427 105 -192 30 -226 50 -207 126 11 42 9 140
-2 158 -10 15 4 59 20 65 7 3 47 -13 87 -34 97 -52 203 -70 250 -43 17 10 38
31 47 47 8 16 27 38 41 48 20 15 30 17 56 8 l31 -11 -3 -67 c-3 -57 -2 -63 8
-42 27 59 86 91 147 80 25 -4 77 -11 115 -15 39 -3 81 -12 95 -19 168 -88 198
-100 215 -86 14 11 20 8 44 -20 26 -32 28 -33 33 -12 4 15 2 22 -8 22 -8 0
-14 4 -14 9 0 16 24 19 51 5 34 -17 88 -10 113 15 18 18 18 21 3 27 -9 3 -17
13 -17 22 0 8 -3 12 -7 9 -3 -4 -14 0 -24 9 -16 14 -36 21 -67 23 -7 1 -23 12
-35 25 -19 21 -34 25 -112 29 -50 3 -121 14 -160 25 -73 20 -249 91 -300 120
-16 10 -49 24 -72 31 -23 8 -56 27 -73 44 -16 16 -30 26 -30 21 0 -4 -12 3
-26 17 -24 23 -33 24 -142 24 -96 0 -127 4 -172 22 -103 40 -93 37 -170 48
-56 9 -42 17 68 40 46 10 93 26 104 35 23 18 32 14 -412 161 -118 39 -229 78
-247 85 -17 8 -37 14 -45 14 -8 0 -45 -29 -83 -65z m1943 -725 c2 -6 10 -10
18 -10 8 0 14 -4 14 -9 0 -10 -61 7 -70 19 -3 4 -12 10 -20 14 -8 3 1 4 20 1
19 -3 37 -10 38 -15z m-933 -739 c45 -17 50 -22 47 -48 -10 -86 -81 -241 -128
-279 -78 -61 -85 -71 -74 -99 9 -24 7 -27 -28 -41 -20 -8 -46 -19 -57 -24 -22
-10 -312 -110 -319 -110 -3 0 -17 -5 -33 -11 -15 -6 -29 -10 -30 -10 -2 0 -24
-9 -50 -20 -53 -23 -262 -93 -473 -159 -74 -23 -182 -57 -240 -75 -118 -38
-170 -50 -170 -39 0 24 59 98 125 159 43 38 96 97 118 130 50 75 68 92 98 97
19 2 25 10 27 35 2 24 16 43 53 75 28 24 90 80 138 124 96 90 142 118 228 137
112 26 311 5 379 -40 13 -8 31 -12 41 -9 10 4 42 44 71 91 89 142 147 166 277
116z m928 -12 c2 -2 11 -37 21 -76 31 -123 9 -245 -44 -250 -14 -2 -44 -5 -67
-8 -26 -3 -43 -1 -43 5 0 5 16 27 35 49 19 21 35 48 35 61 0 16 4 20 15 16 8
-3 15 -1 15 4 0 16 -70 11 -142 -9 -63 -18 -103 -25 -137 -22 -11 1 -9 7 7 24
12 13 22 28 22 34 0 6 7 13 15 17 21 8 19 16 -15 55 -34 39 -34 53 1 63 13 4
47 14 74 23 84 27 108 31 157 25 26 -4 49 -8 51 -11z m-727 -254 c-3 -24 -20
-35 -35 -25 -12 7 -12 11 -2 24 17 20 40 21 37 1z m38 -59 c-9 -24 -94 -59
-113 -47 -8 6 -9 15 -2 34 11 27 34 36 46 17 4 -7 14 -5 27 4 23 16 49 11 42
-8z m-44 -281 c0 -21 -32 -27 -49 -10 -13 13 -14 17 -2 24 18 11 51 2 51 -14z
m-1160 -595 c0 -5 -7 -10 -16 -10 -8 0 -12 5 -9 10 3 6 10 10 16 10 5 0 9 -4
9 -10z"/>
</g>
</svg>
